<svg xmlns="http://www.w3.org/2000/svg" viewBox="0 0 64 64">
<title>Wycombe Punch boxing bag</title>
<defs>
  <linearGradient id="bag" x1="0" x2="1"><stop stop-color="#720b18"/><stop offset=".27" stop-color="#e21830"/><stop offset=".54" stop-color="#ff344b"/><stop offset="1" stop-color="#a30b21"/></linearGradient>
  <linearGradient id="metal" x2="0" y2="1"><stop stop-color="#a4a4af"/><stop offset="1" stop-color="#53535c"/></linearGradient>
</defs>
<rect width="64" height="64" rx="14" fill="#0b0b0e"/>
<path d="M28 4h8v12h-8z" fill="url(#metal)"/>
<path d="M25 13h14l2 12H23z" fill="#871125"/>
<path d="M24 23h16c1 9 9 16 9 25 0 9-7 13-17 13S15 57 15 48c0-9 8-16 9-25Z" fill="url(#bag)" stroke="#ff5469" stroke-width=".6"/>
<path d="M25 17h14m-15 4h16" fill="none" stroke="#f75068" stroke-width="1.3" opacity=".65"/>
<path d="M35 28c-1 9 7 16 4 25" fill="none" stroke="#ff8492" stroke-width="1.7" opacity=".7"/>
<path d="M24 36c-5 8-6 15-2 19" fill="none" stroke="#720b18" stroke-width="2" opacity=".7"/>
<path d="m33 38-5 7 5 4-6 8" fill="none" stroke="#ffd3d9" stroke-width="1.8"/>
</svg>
