<svg class="machine-svg" data-machine-svg="" viewBox="0 0 560 650" xmlns="http://www.w3.org/2000/svg" role="img" aria-label="Illustrative Wycombe Punch cabinet">
<style>.led-segment{fill:#40101c}.led-segment.lit{fill:#ff3653}.impact-rays{opacity:0}</style><defs>
 <linearGradient id="static-face" x1="0" y1="0" x2="1" y2="1"><stop stop-color="#323238"/><stop offset=".45" stop-color="#151519"/><stop offset="1" stop-color="#0a0a0c"/></linearGradient>
 <linearGradient id="static-side" x1="0" y1="0" x2="1" y2="0"><stop stop-color="#6d0c1b"/><stop offset=".62" stop-color="#a71029"/><stop offset="1" stop-color="#d4233f"/></linearGradient>
 <linearGradient id="static-bag" x1="0" y1=".3" x2="1" y2=".5"><stop stop-color="#720b18"/><stop offset=".27" stop-color="#e21830"/><stop offset=".54" stop-color="#ff344b"/><stop offset="1" stop-color="#a30b21"/></linearGradient>
 <linearGradient id="static-metal" x1="0" y1="0" x2="0" y2="1"><stop stop-color="#57575e"/><stop offset="1" stop-color="#17171c"/></linearGradient>
 <radialGradient id="static-floor"><stop stop-color="#ee203d" stop-opacity=".2"/><stop offset=".7" stop-color="#ee203d" stop-opacity=".04"/><stop offset="1" stop-color="#ee203d" stop-opacity="0"/></radialGradient>
</defs>
<g class="cabinet-ground" transform="rotate(-7 317.5 587.4)">
<ellipse cx="317.5" cy="587.4" rx="235" ry="55" fill="url(#static-floor)"/>
<ellipse cx="317.5" cy="587.4" rx="177" ry="35" fill="none" stroke="#ff2848" stroke-opacity=".15"/>
<ellipse cx="317.5" cy="587.4" rx="145" ry="25" fill="#050506" opacity=".7"/>
</g>
<g class="cabinet-base" stroke-linejoin="round">
<path class="base-front" d="M190.5 598.5 385.5 574.6 385 592.6 190 616.5Z" fill="#09090c" stroke="#303037"/>
<path class="base-side" d="M385.5 574.6 445.5 540.3 445 558.3 385 592.6Z" fill="#131318" stroke="#37373f"/>
<path class="base-top" d="M190.5 598.5 250.5 564.2 445.5 540.3 385.5 574.6Z" fill="#24242b" stroke="#4c4c54"/>
<path d="M190.5 598.5 385.5 574.6 445.5 540.3" fill="none" stroke="#62626c" stroke-width=".8" stroke-opacity=".65"/>
</g>
<path d="m225 199 169-21-10 392-171 21Z" fill="url(#static-face)" stroke="#53535c" stroke-width="1.6"/>
<path class="cabinet-side" d="M394 178 436 154 426 546 384 570Z" fill="url(#static-side)" stroke="#6b1527" stroke-width="1.2"/>
<path d="M404 213 425 201 417 512 396 524Z" fill="#750d20" stroke="#d14459" stroke-opacity=".35"/>
<path d="M432 172 423 532" fill="none" stroke="#f5677c" stroke-opacity=".3" stroke-width="1.3"/>
<path d="m407 237 13-7m-13 14 13-7m-14 14 13-7" fill="none" stroke="#430a16" stroke-width="2.2" stroke-linecap="round"/>
<path d="M395 181 385 567" fill="none" stroke="#f74460" stroke-opacity=".55"/>
<path d="m219 376-2 205M389 324l-9 239" stroke="#fa2443" stroke-width="4"/>
<path d="m284 221 91-12-1 96-91 12Z" fill="#060608" stroke="#4b4b54"/>
<text x="329" y="230" fill="#a0a0ac" font-size="6" font-family="Arial,sans-serif" letter-spacing="1.4" text-anchor="middle">YOUR SCORE</text>
<g data-led-display="" transform="translate(298 237)"><g data-digit="0" transform="translate(0 0)"><path data-segment="a" class="led-segment lit" d="M3 0h10l2 2-2 2H3L1 2Z"/><path data-segment="b" class="led-segment lit" d="m16 3 2 2v9l-2 2-2-2V5Z"/><path data-segment="c" class="led-segment lit" d="m16 19 2 2v9l-2 2-2-2v-9Z"/><path data-segment="d" class="led-segment lit" d="M3 32h10l2 2-2 2H3l-2-2Z"/><path data-segment="e" class="led-segment " d="m0 19 2 2v9l-2 2-2-2v-9Z"/><path data-segment="f" class="led-segment lit" d="m0 3 2 2v9l-2 2-2-2V5Z"/><path data-segment="g" class="led-segment lit" d="M3 16h10l2 2-2 2H3l-2-2Z"/></g><g data-digit="1" transform="translate(25 0)"><path data-segment="a" class="led-segment lit" d="M3 0h10l2 2-2 2H3L1 2Z"/><path data-segment="b" class="led-segment lit" d="m16 3 2 2v9l-2 2-2-2V5Z"/><path data-segment="c" class="led-segment lit" d="m16 19 2 2v9l-2 2-2-2v-9Z"/><path data-segment="d" class="led-segment lit" d="M3 32h10l2 2-2 2H3l-2-2Z"/><path data-segment="e" class="led-segment " d="m0 19 2 2v9l-2 2-2-2v-9Z"/><path data-segment="f" class="led-segment lit" d="m0 3 2 2v9l-2 2-2-2V5Z"/><path data-segment="g" class="led-segment lit" d="M3 16h10l2 2-2 2H3l-2-2Z"/></g><g data-digit="2" transform="translate(50 0)"><path data-segment="a" class="led-segment lit" d="M3 0h10l2 2-2 2H3L1 2Z"/><path data-segment="b" class="led-segment lit" d="m16 3 2 2v9l-2 2-2-2V5Z"/><path data-segment="c" class="led-segment lit" d="m16 19 2 2v9l-2 2-2-2v-9Z"/><path data-segment="d" class="led-segment lit" d="M3 32h10l2 2-2 2H3l-2-2Z"/><path data-segment="e" class="led-segment " d="m0 19 2 2v9l-2 2-2-2v-9Z"/><path data-segment="f" class="led-segment lit" d="m0 3 2 2v9l-2 2-2-2V5Z"/><path data-segment="g" class="led-segment lit" d="M3 16h10l2 2-2 2H3l-2-2Z"/></g></g>
<text x="329" y="299" fill="#8f8f9c" font-size="5.4" font-family="Arial,sans-serif" letter-spacing="1" text-anchor="middle">ONE MORE GO?</text>
<path d="m306 326 65-7v17l-65 7Z" fill="#111115" stroke="#4a4a53"/>
<circle cx="319" cy="333" r="4" fill="#ff2848"/>
<path d="m333 327 25-3v7l-25 3Z" fill="#030304" stroke="#44444e"/>
<path d="m228 365 146-17-3 166-147 18Z" fill="#111114" stroke="#313138"/>
<image href="logo-small.webp" x="245" y="376" width="106" height="106"/>
<path d="m237 537 116-14m-116 20 116-14m-116 20 116-14" stroke="#42424b" stroke-width="2"/>
<rect x="234" y="566" width="11" height="7" fill="#2c2c33" transform="rotate(-7 234 566)"/>
<circle cx="243" cy="559" r="1.8" fill="#81818b"/>
<path d="M143 89 185 65 428 43 386 67Z" fill="url(#static-metal)" stroke="#48484f"/>
<path class="cabinet-head-side" d="M386 67 428 43 448 165 406 189Z" fill="url(#static-side)" stroke="#89162c"/>
<path d="M429 49 447 163" fill="none" stroke="#ed516b" stroke-opacity=".4"/>
<path d="m143 89 243-22 20 122-245 27Z" fill="url(#static-face)" stroke="#68686f" stroke-width="2"/>
<path d="m152 98 224-20 17 101-224 26Z" fill="#0c0c10" stroke="#fa2846" stroke-width="2.8"/>
<path d="m164 110 67-6m87-8 46-4m-192 96 61-7m88-11 54-6" stroke="#ff2f49" stroke-width="5"/>
<image href="logo-small.webp" x="234" y="86" width="82" height="82"/>
<path d="m161 216 246-27-29 23-189 23Z" fill="#07070a" stroke="#38383e"/>
<path d="m205 219 45-6v10l-43 6Z" fill="#ff2645" opacity=".25"/>
<g class="bag-assembly">
 <path d="m222 212 14-1v23l-14 2Z" fill="url(#static-metal)" stroke="#62626c"/>
 <path d="m217 235 24-2 5 32-33 2Z" fill="#871125"/>
 <path d="m215 255 29-2c3 27 22 43 22 66 0 32-19 47-39 47-23 0-41-17-39-45 1-24 21-44 27-66Z" fill="url(#static-bag)" stroke="#ff5469" stroke-opacity=".4"/>
 <path d="m232 264c-2 30 18 53 11 78" fill="none" stroke="#ff8492" stroke-opacity=".55" stroke-width="1.8"/>
 <path d="m213 280c-13 24-18 48-7 63" fill="none" stroke="#620819" stroke-width="3" opacity=".55"/>
 <path d="m216 244 25-2m-26 8 28-2" stroke="#f75068" stroke-opacity=".5"/>
 <path d="m236 322-7 8 5 6-9 11" fill="none" stroke="#ffd3d9" stroke-width="2" opacity=".7"/>
</g>
<g class="impact-rays" stroke="#ff405a" stroke-width="3" stroke-linecap="round">
 <path d="m169 285-22-9m111 9 20-12m-70 98-8 21m-20-45-23 11m91-7 20 10m-27-99 6-15"/>
</g>
</svg>
